<svg xmlns="http://www.w3.org/2000/svg" width="1240" height="1240"><path d="M572.5 83.595c-69.467 6.304-133.967 24.805-196 56.219C202.135 228.116 88.37 405.691 82.16 599.25 79.493 682.357 93.143 757.179 124.44 831c7.862 18.545 25.407 52.604 35.879 69.647 84.2 137.042 224.343 229.525 382.263 252.263 29.611 4.263 49.477 5.355 86.918 4.776 36.175-.559 52.204-1.889 80.64-6.687 218.782-36.914 394.504-207.315 437.755-424.499 11.725-58.874 13.517-124.772 5.004-184-11.203-77.946-40.749-155.168-84.373-220.513-43.682-65.432-99.994-119.669-167.781-161.597-19.046-11.78-59.133-31.918-80.245-40.312-51.347-20.415-104.127-32.669-159.45-37.02-18.335-1.442-70.206-1.127-88.55.537m-1.642 211.348c-14.653 3.718-27.309 7.016-28.123 7.329-1.228.471.468 8.419 9.892 46.367C558.882 373.828 564 394.958 564 395.594c0 1.325-40.162 11.682-41.108 10.601-.334-.382-5.868-20.495-12.298-44.695-6.429-24.2-11.9-44.715-12.158-45.589-.448-1.519-11.166.794-58.014 12.521-1.999.5-1.609 2.257 10.25 46.243 6.78 25.148 12.328 46.209 12.328 46.803 0 .596-26.093 7.5-58.25 15.413-32.038 7.884-58.521 14.621-58.853 14.972-.331.35 2.838 14.587 7.042 31.637 6.956 28.206 7.821 30.969 9.603 30.651 1.077-.192 12.73-3.229 25.895-6.75 26.257-7.021 32.114-7.691 38.545-4.41 4.807 2.452 7.807 6.306 12.462 16.009 6.672 13.905 11.6 30.606 31.429 106.5 20.207 77.343 37.144 146.467 38.591 157.5.745 5.683-.866 8.954-5.54 11.245-1.958.96-13.55 4.381-25.759 7.601-12.209 3.22-22.385 6.041-22.613 6.268-.227.228-.01 13.908.483 30.4.493 16.492.912 33.249.931 37.236.026 5.587.36 7.25 1.457 7.25.783 0 27.206-6.276 58.719-13.948 31.513-7.671 57.403-13.84 57.534-13.709.131.131 5.624 20.848 12.206 46.039 6.583 25.191 12.212 46.045 12.51 46.343.297.297 11.693-2.24 25.324-5.64 34.161-8.518 32.284-7.952 32.284-9.747 0-.872-4.788-22.017-10.639-46.989-5.852-24.972-10.464-45.542-10.25-45.711 1.551-1.226 41.417-10.401 41.887-9.641.323.522 5.699 21.67 11.946 46.996 9.523 38.604 11.617 45.971 12.957 45.584.88-.254 13.974-3.708 29.099-7.675 15.125-3.966 27.657-7.337 27.849-7.489.255-.203-19.209-80.384-22.455-92.5-.328-1.223.898-1.874 5.34-2.835 21.843-4.725 55.895-19.794 74.22-32.845 35.228-25.089 55.78-58.16 58.969-94.888 2.438-28.078-4.889-57.537-19.348-77.789-5.642-7.902-18.268-19.89-27.075-25.704-13.679-9.032-33.472-17.661-52.5-22.888-4.675-1.284-8.832-2.606-9.238-2.937-.406-.332 1.551-3.736 4.349-7.565 6.672-9.132 14.242-21.988 17.513-29.744 5.382-12.76 5.856-15.326 5.864-31.718.009-16.457-.813-21.088-7.18-40.469-9.059-27.574-36.053-52.778-67.986-63.477-14.379-4.817-21.77-6.097-38.822-6.725-17.97-.661-28.253.341-44.761 4.362-5.918 1.441-10.939 2.438-11.157 2.215-.218-.223-5.198-19.081-11.067-41.906-13.834-53.806-13.306-52.019-15.336-51.909-.923.05-13.668 3.133-28.321 6.852M610.5 457.149c-17.408 2.227-66.181 14.045-68.65 16.635-.556.582 27.772 110.721 28.842 112.138.508.673 18.663-1.855 32.505-4.524 51.806-9.993 85.925-29.958 95.802-56.058 2.78-7.348 3.698-20.097 2.054-28.548-4.034-20.746-18.336-33.912-42.181-38.832-10.249-2.115-34.946-2.529-48.372-.811m55 171.382c-15.628 1.857-35.205 5.624-54.5 10.489-23.309 5.876-24.534 6.308-24.293 8.551.288 2.687 29.388 119.831 29.898 120.355.792.815 26.845-4.14 41.819-7.955 20.127-5.127 36.525-10.86 51.123-17.874 16.711-8.028 25.471-14.001 35.994-24.541C758.983 704.092 764 693.001 764 676.745c0-25.744-13.488-40.885-42.086-47.242-10.38-2.308-40.761-2.831-56.414-.972" fill="undefined" fill-rule="evenodd"/></svg>