<svg xmlns="http://www.w3.org/2000/svg" viewBox="0 0 640 640">
  <circle cx="320" cy="320" r="320" fill="#fff"/>
  <circle cx="320" cy="320" r="278" fill="#00c58a"/>
  <path fill="#fff" d="M296.7 441.2L236 456l-1-39 11.4-3c13.6-3.4 16.8-3.8 16.8-9 0-2.3-7.8-35.5-17.6-72.5-21.2-81.6-19-77.8-45.4-70.6l-14 3.7-8-32.4 61.1-15.2-13-48.2 30.7-7.5 12.8 47.9 21.6-5.5-12-48.6 30.7-7.7 12.7 49.2c34.2-10.9 68.3 0 82.8 28.6 8.7 24.9 8 36.6-10 60.3 18.7 5.1 54.6 14.8 56.7 58 2.1 43.2-38.4 68.5-72 75.2l12 48.6-30.3 8-12-48.6-22 5.6 11.4 48.6-30.1 7.6zm97-98.9c-8.3-36.2-91.3-9-91.3-9l15.7 63.3s85.8-10.1 75.6-54.3zm-32.2-87.7c-9.2-37-82.3-10-82.3-10l15.3 58s77.5-5.5 67-48z"/>
</svg>
